<svg xmlns="http://www.w3.org/2000/svg" viewBox="0 0 512 512"><title>UpTap_Icon</title><path d="M392,0H120A120,120,0,0,0,0,120V392A120,120,0,0,0,120,512H392A120,120,0,0,0,512,392V120A120,120,0,0,0,392,0ZM238.7,276.32q0,83.26-90.76,83.19-98,0-97.94-83.19V158.06h77.69v116c0,11.69,3.91,19.26,11.75,22.77a22.4,22.4,0,0,0,9.69,1.86c10.69,0,17.4-5.11,20.19-15.27a36,36,0,0,0,1.26-9.82V158.06H238.7Zm216-8.43a83.17,83.17,0,0,1-19.79,27.48,91.21,91.21,0,0,1-29.48,17.87,95.1,95.1,0,0,1-20.32,5.17V189.93l-75.29,75.3h37.64v89.5H267V158.53c40.77-4,71.51-6,92.43-6S396.73,154,409,157.07s22.24,7.77,30.14,14.14Q462,189.93,462,232.69A84,84,0,0,1,454.7,267.89Z" fill="#c01733"/><path d="M462,232.69a84,84,0,0,1-7.3,35.2,83.17,83.17,0,0,1-19.79,27.48,91.21,91.21,0,0,1-29.48,17.87,95.1,95.1,0,0,1-20.32,5.17V189.93l-75.29,75.3h37.64v89.5H267V158.53c40.77-4,71.51-6,92.43-6S396.73,154,409,157.07s22.24,7.77,30.14,14.14Q462,189.93,462,232.69Z" fill="#fff"/></svg>