<svg width="512" height="512" viewBox="0 0 512 512" fill="none" xmlns="http://www.w3.org/2000/svg">
<path d="M392 0H120C88.174 0 57.6516 12.6428 35.1472 35.1472C12.6428 57.6516 0 88.174 0 120V392C0 423.826 12.6428 454.348 35.1472 476.853C57.6516 499.357 88.174 512 120 512H392C423.826 512 454.348 499.357 476.853 476.853C499.357 454.348 512 423.826 512 392V120C512 88.174 499.357 57.6516 476.853 35.1472C454.348 12.6428 423.826 0 392 0Z" fill="#C01733"/>
<path d="M147.94 359.51C208.447 359.557 238.7 331.827 238.7 276.32V158.06H170.58V273.6C170.614 276.916 170.19 280.22 169.32 283.42C166.53 293.58 159.82 298.69 149.13 298.69C145.802 298.798 142.492 298.163 139.44 296.83C131.6 293.32 127.69 285.75 127.69 274.06V158.06H50V276.32C49.96 331.78 82.6067 359.51 147.94 359.51Z" fill="white"/>
<path d="M434.91 295.37C443.321 287.664 450.058 278.31 454.7 267.89C459.645 256.821 462.135 244.813 462 232.69C462 204.183 454.38 183.69 439.14 171.21C431.24 164.84 421.27 160.14 409 157.07C396.73 154 380.35 152.53 359.43 152.53C338.51 152.53 307.77 154.53 267 158.53V354.73H347.46V265.23H309.82L385.11 189.93V318.41C392.053 317.441 398.868 315.707 405.43 313.24C416.303 309.211 426.309 303.146 434.91 295.37Z" fill="white"/>
</svg>
