<svg width="64" height="64" viewBox="0 0 64 64" fill="none" xmlns="http://www.w3.org/2000/svg">
<path d="M0 10C0 4.47715 4.47715 0 10 0H54C59.5228 0 64 4.47715 64 10V54C64 59.5228 59.5228 64 54 64H10C4.47715 64 0 59.5228 0 54V10Z" fill="#C01733"/>
<path d="M38.7553 37.8519V40.8326C38.7553 45.2224 35.1967 48.7811 30.8069 48.7811C26.417 48.7811 22.8583 45.2224 22.8583 40.8326V37.8519H26.8326V40.8326C26.8326 43.0275 28.6119 44.8069 30.8069 44.8069C33.0018 44.8069 34.7811 43.0275 34.7811 40.8326V37.8519H38.7553Z" fill="white"/>
<path d="M10.9356 15C16.4229 15 20.8712 19.4483 20.8712 24.9356H20.6984C20.8114 25.414 20.8712 25.913 20.8712 26.426C20.8712 29.9927 17.9798 32.8841 14.4131 32.8841C10.8464 32.8841 7.95493 29.9927 7.95493 26.426C7.95493 22.9186 10.7509 20.0642 14.2356 19.9702C13.2907 19.341 12.156 18.9742 10.9356 18.9742C7.64322 18.9742 4.97424 21.6432 4.97424 24.9356H1C1 19.4483 5.44831 15 10.9356 15Z" fill="white"/>
<path d="M48.4684 15C53.9557 15 58.404 19.4483 58.404 24.9356H58.2312C58.3442 25.414 58.404 25.913 58.404 26.426C58.404 29.9927 55.5126 32.8841 51.9459 32.8841C48.3791 32.8841 45.4877 29.9927 45.4877 26.426C45.4877 22.9186 48.2838 20.0642 51.7684 19.9702C50.8235 19.341 49.6888 18.9742 48.4684 18.9742C45.176 18.9742 42.507 21.6432 42.507 24.9356H38.5328C38.5328 19.4483 42.9811 15 48.4684 15Z" fill="white"/>
</svg>
