<svg xmlns="http://www.w3.org/2000/svg" viewBox="0 0 400 78.54"><title>UpTap_Logo</title><path d="M45.74,2.12V45.94a13.52,13.52,0,0,1-.48,3.73q-1.57,5.79-7.65,5.8a8.54,8.54,0,0,1-3.68-.71q-4.45-2-4.46-8.64v-44H0V47Q0,78.57,37.15,78.54q34.43,0,34.44-31.56V2.12Z" fill="#c01733"/><path d="M147.61,7.1a29.36,29.36,0,0,0-11.44-5.36C131.54.58,125.29,0,117.38,0S97.78.78,82.32,2.29V76.73h30.53v-34H98.56l28.57-28.56V63a36.35,36.35,0,0,0,7.71-2A34.72,34.72,0,0,0,146,54.21,31.81,31.81,0,0,0,156.3,30.43Q156.3,14.22,147.61,7.1Z" fill="#c01733"/><path d="M161.06,2.12v24.2h20.78V76.73h29.07V26.32h20.8V2.12Z" fill="#c01733"/><path d="M279.14,5.62A9.1,9.1,0,0,0,275,1.71,11.11,11.11,0,0,0,270.25.48a14.81,14.81,0,0,0-3.68.38c-3.42.83-5.79,2.52-7.05,5l-37.1,70.84h33l2.54-7.38h20.18l2.95,7.38h37.88ZM260.23,54.53l7.93-20.17,7.15,20.17Z" fill="#c01733"/><path d="M391.31,7.1A29.08,29.08,0,0,0,379.9,1.74Q372.94,0,361.08,0t-35,2.29V76.73h30.5V63.22l8.34.18A38.4,38.4,0,0,0,378.56,61a34.52,34.52,0,0,0,11.16-6.77A31.61,31.61,0,0,0,400,30.43Q400,14.22,391.31,7.1ZM369.4,34.81c-1.42,1.64-4,3.33-7.56,5.09l-5.47,2.67V25q7.75-5.55,11.77-5.56a5,5,0,0,1,2.24.47c2,1,3.05,2.95,3.05,5.92S372.09,31.79,369.4,34.81Z" fill="#c01733"/></svg>