<svg width="375" height="50" viewBox="0 0 375 50" fill="none" xmlns="http://www.w3.org/2000/svg">
<path d="M0 49.6781V13.8145C0 11.6101 0.339136 9.76604 1.01741 8.28233C1.73807 6.79861 2.6283 5.65402 3.6881 4.84857C4.79029 4.00074 6.01966 3.40725 7.3762 3.06811C8.73275 2.68658 10.0469 2.49582 11.3187 2.49582C12.7176 2.49582 14.5616 2.51702 16.8508 2.55941C19.1824 2.6018 21.6623 2.68659 24.2906 2.81376C26.9613 2.94094 29.5048 3.1529 31.9212 3.44964V12.6699H14.4345C13.2475 12.6699 12.3785 12.9878 11.8274 13.6237C11.2763 14.2596 11.0007 15.0015 11.0007 15.8493V22.4624L28.8053 23.0347V31.7463L11.0007 32.3186V49.6781H0Z" fill="#C01733"/>
<path d="M52.1411 49.9463C49.9235 49.9463 47.8489 49.7675 45.9175 49.4098C44.0217 49.0521 42.3406 48.3904 40.8741 47.4247C39.4076 46.4589 38.2631 45.1176 37.4404 43.4008C36.6535 41.6481 36.26 39.4126 36.26 36.6942V9.86805H45.5419V36.6406C45.5419 37.8209 45.7923 38.7867 46.293 39.5378C46.8295 40.2532 47.5807 40.7897 48.5464 41.1474C49.5479 41.4693 50.7462 41.6302 52.1411 41.6302C53.5003 41.6302 54.6628 41.4693 55.6285 41.1474C56.63 40.7897 57.3812 40.2532 57.8819 39.5378C58.4184 38.7867 58.6867 37.8209 58.6867 36.6406V9.86805H67.9686V36.6942C67.9686 39.4126 67.5572 41.6481 66.7346 43.4008C65.9477 45.1176 64.821 46.4589 63.3545 47.4247C61.888 48.3904 60.2069 49.0521 58.3111 49.4098C56.4154 49.7675 54.3588 49.9463 52.1411 49.9463Z" fill="#C01733"/>
<path d="M81.9425 49.6781V18.1842H71.4803V9.86805H101.633V18.1842H91.1707V49.6781H81.9425Z" fill="#C01733"/>
<path d="M120.988 49.9463C118.77 49.9463 116.696 49.7675 114.764 49.4098C112.869 49.0521 111.187 48.3904 109.721 47.4247C108.254 46.4589 107.11 45.1176 106.287 43.4008C105.5 41.6481 105.107 39.4126 105.107 36.6942V9.86805H114.389V36.6406C114.389 37.8209 114.639 38.7867 115.14 39.5378C115.676 40.2532 116.428 40.7897 117.393 41.1474C118.395 41.4693 119.593 41.6302 120.988 41.6302C122.347 41.6302 123.51 41.4693 124.475 41.1474C125.477 40.7897 126.228 40.2532 126.729 39.5378C127.265 38.7867 127.534 37.8209 127.534 36.6406V9.86805H136.815V36.6942C136.815 39.4126 136.404 41.6481 135.581 43.4008C134.795 45.1176 133.668 46.4589 132.201 47.4247C130.735 48.3904 129.054 49.0521 127.158 49.4098C125.262 49.7675 123.206 49.9463 120.988 49.9463Z" fill="#C01733"/>
<path d="M142.634 49.6781V9.86805H159.374C161.055 9.86805 162.593 10.0827 163.988 10.5119C165.419 10.9053 166.653 11.6028 167.69 12.6043C168.763 13.5701 169.586 14.8935 170.158 16.5746C170.766 18.2557 171.07 20.3839 171.07 22.9592C171.07 24.7119 170.909 26.2141 170.587 27.466C170.265 28.6821 169.836 29.7194 169.299 30.5779C168.763 31.4005 168.137 32.0801 167.422 32.6166C166.742 33.1532 166.027 33.6182 165.275 34.0116L172.411 49.6781H162.968L157.013 35.5139C156.655 35.5139 156.244 35.5139 155.779 35.5139C155.35 35.4781 154.921 35.4602 154.491 35.4602C154.062 35.4602 153.615 35.4602 153.15 35.4602C152.721 35.4602 152.309 35.4602 151.916 35.4602V49.6781H142.634ZM151.916 28.1098H157.71C158.354 28.1098 158.927 28.0383 159.427 27.8952C159.928 27.7164 160.357 27.4302 160.715 27.0368C161.073 26.6076 161.341 26.0711 161.52 25.4272C161.699 24.7834 161.788 23.9786 161.788 23.0129C161.788 22.0471 161.699 21.2602 161.52 20.6522C161.341 20.0083 161.073 19.5255 160.715 19.2036C160.357 18.8459 159.928 18.5955 159.427 18.4524C158.927 18.2736 158.354 18.1842 157.71 18.1842H151.916V28.1098Z" fill="#C01733"/>
<path d="M186.779 50C185.92 50 184.901 49.9106 183.721 49.7317C182.576 49.5529 181.467 49.1773 180.394 48.605C179.321 47.997 178.427 47.0849 177.711 45.8688C176.996 44.6169 176.638 42.9358 176.638 40.8254V19.4182C176.638 17.5582 176.925 16.0023 177.497 14.7504C178.105 13.4985 178.856 12.5328 179.75 11.8532C180.68 11.1378 181.718 10.6371 182.862 10.3509C184.007 10.029 185.116 9.86805 186.189 9.86805C189.05 9.86805 191.536 9.9217 193.646 10.029C195.757 10.1005 197.616 10.19 199.226 10.2973C200.836 10.4046 202.284 10.5119 203.572 10.6192V18.4524H188.978C188.013 18.4524 187.262 18.6849 186.725 19.1499C186.189 19.5791 185.92 20.2766 185.92 21.2423V25.6418L200.943 26.1784V33.4751L185.92 33.9579V38.1428C185.92 38.9297 186.045 39.5557 186.296 40.0207C186.546 40.4499 186.886 40.7718 187.315 40.9864C187.744 41.201 188.209 41.3083 188.71 41.3083H203.572V49.0879C201.998 49.2667 200.245 49.4277 198.314 49.5708C196.382 49.7138 194.415 49.8033 192.412 49.839C190.445 49.9106 188.567 49.9642 186.779 50Z" fill="#C01733"/>
<path d="M209.447 49.6781V13.8145C209.447 11.6101 209.787 9.76604 210.465 8.28233C211.186 6.79861 212.076 5.65402 213.136 4.84857C214.238 4.00074 215.467 3.40725 216.824 3.06811C218.18 2.68658 219.494 2.49582 220.766 2.49582C222.165 2.49582 224.009 2.51702 226.298 2.55941C228.63 2.6018 231.11 2.68659 233.738 2.81376C236.409 2.94094 238.952 3.1529 241.369 3.44964V12.6699H223.882C222.695 12.6699 221.826 12.9878 221.275 13.6237C220.724 14.2596 220.448 15.0015 220.448 15.8493V22.4624L238.253 23.0347V31.7463L220.448 32.3186V49.6781H209.447Z" fill="#C01733"/>
<path d="M291.395 49.9463C289.178 49.9463 257.296 49.7675 255.365 49.4098C253.469 49.0521 251.788 48.3904 250.322 47.4247C248.855 46.4589 247.711 45.1176 246.888 43.4008C246.101 41.6481 245.708 39.4126 245.708 36.6942V9.86805H254.989V36.6406C254.989 37.8209 255.24 38.7867 255.74 39.5378C256.277 40.2532 257.028 40.7897 257.994 41.1474C258.995 41.4693 290 41.6302 291.395 41.6302C292.755 41.6302 323.724 41.4693 324.69 41.1474C325.691 40.7897 326.442 40.2532 326.943 39.5378C327.48 38.7867 327.748 37.8209 327.748 36.6406V9.86805H337.03V36.6942C337.03 39.4126 336.618 41.6481 335.796 43.4008C335.009 45.1176 333.882 46.4589 332.416 47.4247C330.949 48.3904 329.268 49.0521 327.372 49.4098C325.477 49.7675 293.613 49.9463 291.395 49.9463Z" fill="#C01733"/>
<path d="M343.009 49.6781V9.86805H350.36L365.597 33.9579V9.86805H374.879V49.6781H367.475L352.238 25.6418V49.6781H343.009Z" fill="#C01733"/>
<path d="M294.317 22.8519V25.8326C294.317 30.2224 290.758 33.7811 286.368 33.7811C281.979 33.7811 278.42 30.2224 278.42 25.8326V22.8519H282.394V25.8326C282.394 28.0275 284.173 29.8069 286.368 29.8069C288.563 29.8069 290.343 28.0275 290.343 25.8326V22.8519H294.317Z" fill="#C01733"/>
<path d="M266.497 0C271.984 0 276.433 4.44833 276.433 9.93562H276.26C276.373 10.414 276.433 10.913 276.433 11.426C276.433 14.9927 273.541 17.8841 269.975 17.8841C266.408 17.8841 263.516 14.9927 263.516 11.426C263.516 7.91856 266.312 5.0642 269.797 4.9702C268.852 4.34096 267.717 3.97425 266.497 3.97425C263.205 3.97425 260.536 6.64324 260.536 9.93562H256.561C256.561 4.44833 261.01 0 266.497 0Z" fill="#C01733"/>
<path d="M304.03 0C309.517 0 313.966 4.44833 313.966 9.93562H313.793C313.906 10.414 313.966 10.913 313.966 11.426C313.966 14.9927 311.074 17.8841 307.507 17.8841C303.941 17.8841 301.049 14.9927 301.049 11.426C301.049 7.91856 303.845 5.0642 307.33 4.9702C306.385 4.34096 305.25 3.97425 304.03 3.97425C300.738 3.97425 298.069 6.64324 298.069 9.93562H294.094C294.094 4.44833 298.543 0 304.03 0Z" fill="#C01733"/>
</svg>
